# xmcd
#
# Track frame offsets: 
#        150
#        16650
#        41850
#        53550
#        64877
#        75827
#        88802
#        104777
#        122852
#        132077
#        148427
#        162302
#        175727
#        192377
#        210227
#        221477
#        235052
#        247352
#        261227
#        276977
#
# Disc length: 3874 seconds
#
# Revision: 0
# Processed by: cddbd v1.5.2PL0 Copyright (c) Steve Scherf et al.
# Submitted via: ExactAudioCopy v1.1
#
DISCID=2d0f2014
DTITLE=Greenhorns - Mirek Hoffmann 80
DYEAR=2015
DGENRE=Country
TTITLE0=Oranzovej drak
TTITLE1=Blues toulaveho sofera
TTITLE2=Z cesty dlouhy se zas vracim
TTITLE3=Historie tehle kary
TTITLE4=Cekani na vlak
TTITLE5=A slunce pali jen
TTITLE6=Odvolejte kneze z cesty
TTITLE7=Balada o Boot Hill
TTITLE8=Zadnej vlak
TTITLE9=Kovbojuv stesk
TTITLE10=Jizni vitr
TTITLE11=Zloutnou uz travy
TTITLE12=Dam si pres rameno pingl
TTITLE13=Co se bude dit
TTITLE14=Vuz do Tennessee
TTITLE15=Tom Dooley
TTITLE16=Bilej snih
TTITLE17=Zatoka
TTITLE18=Svetice ze Spoker Hill
TTITLE19=Bida s nouzi
EXTD=
EXTT0=
EXTT1=
EXTT2=
EXTT3=
EXTT4=
EXTT5=
EXTT6=
EXTT7=
EXTT8=
EXTT9=
EXTT10=
EXTT11=
EXTT12=
EXTT13=
EXTT14=
EXTT15=
EXTT16=
EXTT17=
EXTT18=
EXTT19=
PLAYORDER=
